<svg id="レイヤー_1" data-name="レイヤー 1" xmlns="http://www.w3.org/2000/svg" viewBox="0 0 40 40"><defs><style>.cls-1{fill:#fff;}.cls-2{fill:#231815;}</style></defs><title>discripter</title><rect class="cls-1" width="40" height="40"/><path class="cls-2" d="M0,0V40H40V0H0ZM19.66,8.78c0-.94,1.09-1.17,1.7-1.16A1.53,1.53,0,0,1,23.09,8.9V15.4a1.4,1.4,0,0,1-1.57,1.39,1.71,1.71,0,0,1-1.86-1.68V8.78h0Zm-5.45-.57h0c0-1,1.14-1.46,2.14-1.44,0.73,0,1.93.34,1.93,1.45v7.15a1.9,1.9,0,0,1-2.09,1.79,1.81,1.81,0,0,1-2-1.81V8.21h0ZM9.11,7.8c0-1,1.12-1.45,2.1-1.43,0.72,0,1.95.34,1.95,1.45l0,8.33a1.78,1.78,0,0,1-2,1.74,1.87,1.87,0,0,1-2-1.72,4,4,0,0,0,1.35-3,5.43,5.43,0,0,0-.54-2.32v0l-0.4-.76-0.43.22V7.8h0ZM4,8.62c0-1,1.12-1.45,2.1-1.43A1.88,1.88,0,0,1,8,8.33v2.51L4,12.9V8.62H4ZM23.25,36H9V31.75L1,21.31l1.19-5.87L8.85,12a3.86,3.86,0,0,1,.2,1.18,2.65,2.65,0,0,1-1.36,2.35l-1.1.68,0.51,1.47s0.62,2.45.62,2.57c0,1.21-1.36,2.49-1.94,2.92L6.62,24.3A6.84,6.84,0,0,0,9,21H23.25V36h0Zm6.68-15h-5.6V10.24H39.21L29.93,21h0Z"/></svg>