<?xml version="1.0" encoding="utf-8"?>
<!-- Generator: Adobe Illustrator 24.3.0, SVG Export Plug-In . SVG Version: 6.00 Build 0)  -->
<svg version="1.1" id="レイヤー_1" xmlns="http://www.w3.org/2000/svg" xmlns:xlink="http://www.w3.org/1999/xlink" x="0px"
	 y="0px" viewBox="0 0 67.6 85.6" style="enable-background:new 0 0 67.6 85.6;" xml:space="preserve">
<style type="text/css">
	.st0{fill:#231815;}
	.st1{fill:#FFFFFF;}
</style>
<path class="st0" d="M66.8,6.8c0-3.3-2.7-6-6-6h-54c-3.3,0-6,2.7-6,6v63.9h66V6.8z"/>
<path class="st0" d="M60.8,85.6h-54c-3.8,0-6.8-3-6.8-6.8v-72C0,3,3,0,6.8,0h54c3.7,0,6.8,3,6.8,6.8v72
	C67.6,82.5,64.5,85.6,60.8,85.6z M6.8,1.6c-2.9,0-5.2,2.3-5.2,5.2v72c0,2.9,2.3,5.2,5.2,5.2h54c2.9,0,5.2-2.3,5.2-5.2v-72
	c0-2.9-2.3-5.2-5.2-5.2L6.8,1.6L6.8,1.6z"/>
<path class="st1" d="M17.2,6.7c-1.2-0.8-2.6-1.3-4.1-1.3c-3.4,0-4.3,2.7-4.3,5.6c0,3.4,1.6,6.1,5.3,6.1c1.9-0.1,3.7-0.6,5.3-1.6
	l-1.2,3.6c-1.6,0.4-3.2,0.6-4.9,0.6c-2.4,0.2-4.7-0.6-6.6-2.1c-1.9-1.6-2.9-3.9-2.9-6.4c0-2.3,1-4.6,2.7-6.1
	c1.9-1.5,4.4-2.3,6.8-2.2l3.7,0.3L17.2,6.7z"/>
<path class="st1" d="M25.4,16.7c0.8,0.3,1.7,0.4,2.6,0.4c1.3,0.2,2.7-0.3,3.6-1.3h0.1l-1,3.7H19.9v-0.1c1.2-0.8,1-2.1,1-3.4V6.8
	c0-1.3,0.2-2.7-1-3.4v0h8.6c0.3,0,0.7,0,1-0.1h0.1v3.6h-0.1c-0.7-1.1-2-1-3.2-1h-0.8v4h2.3c0.3,0,0.6,0,0.9-0.1h0.1v3.4h-0.1
	c-0.3-1-1.5-0.9-2.4-0.9h-0.8V16.7L25.4,16.7z"/>
<path class="st1" d="M37.7,12.5l2.8,5.3c0.8,1.5,1.6,1.7,3.3,1.6l3.4-0.2c-0.9-0.8-1.7-1.8-2.3-2.9l-2.9-4.9
	c1.7-0.6,2.8-2.1,2.9-3.9c0.1-1.6-0.8-3-2.2-3.7c-1-0.5-2.1-0.7-3.3-0.6h-7.2v0.1c1.2,0.8,1,2.1,1,3.4v9.1c0,1.3,0.2,2.7-1,3.4v0.1
	h6.6v-0.1c-1.2-0.8-1-2.1-1-3.4L37.7,12.5L37.7,12.5z M37.9,5.7c0.5,0,1,0.1,1.4,0.3c0.6,0.5,1,1.3,1,2.1c0,1.5-1.1,2.8-2.6,3.1V5.7
	H37.9"/>
<path class="st1" d="M45.8,11.3c0,5.2,3.9,8.4,8.9,8.4s9.2-3.1,9.2-8.4S60.1,3,55,3C50,3,45.8,6.1,45.8,11.3z M50.5,10.7
	c0-2.5,1.3-5.3,4.2-5.3c3.3,0,4.4,4,4.4,6.8c0.1,1.2-0.2,2.4-0.9,3.4c-0.7,1.1-2,1.7-3.2,1.7c-1.4-0.1-2.6-0.9-3.3-2.1
	C51,13.8,50.6,12.2,50.5,10.7"/>
<path class="st1" d="M40.9,67.7H13V22.7h27c9.3,0,15.9,5.6,15.9,13.7c0,2.5-0.7,4.9-2.2,6.9c2.4,2.5,3.7,5.9,3.6,9.4
	C57.3,61.3,50.4,67.7,40.9,67.7z M21.6,59h2.6V31.3h-2.6V59z M45.1,48c0.5,1.1,0.8,2.3,0.8,3.5c0.1,3.2-1.8,6.2-4.8,7.5
	c3.8-0.1,7.6-2,7.6-6.4c0.1-1.6-0.6-3.1-1.8-4C46.4,48.3,45.8,48.1,45.1,48z M41,31.4c2.3,1.4,3.6,3.9,3.6,6.5
	c0,0.6-0.1,1.2-0.2,1.8h0.1c0.6-0.1,1.2-0.4,1.6-0.7c0.8-0.6,1.2-1.5,1.1-2.5C47.2,33,44.2,31.6,41,31.4z"/>
<path class="st0" d="M40.9,65.5H15.2V24.9H40c8.1,0,13.7,4.7,13.7,11.5c0.1,2.7-1,5.3-3,7.1l0,0c2.9,2.1,4.6,5.6,4.5,9.2
	C55.2,60.1,49.2,65.5,40.9,65.5z M19.5,61.2h21.4c4.8,0,10-2.7,10-8.5c0.1-2.2-0.9-4.4-2.8-5.7c-0.8-0.6-1.8-1-2.9-1.2L37.7,44
	l7.5-2.3c0.9-0.2,1.7-0.6,2.3-1.1c1.3-1,2-2.6,1.9-4.2c0-4.4-3.7-7.2-9.4-7.2H19.5V61.2L19.5,61.2z M36.8,57.8H26.4V45.7h10.4
	c6.4,0,6.9,4.5,6.9,5.8C43.8,55.3,41,57.8,36.8,57.8z M30.6,53.5h6.2c1.2,0,2.6-0.3,2.6-2c0-0.6,0-1.5-2.6-1.5h-6.1L30.6,53.5
	L30.6,53.5z M37.3,43.8H26.4V32.6h10.9c2.8-0.1,5.1,2.1,5.2,4.8c0,0.2,0,0.3,0,0.5C42.4,41.3,40.2,43.8,37.3,43.8z M30.7,39.5h6.6
	c0.4,0,0.9-0.6,0.9-1.7s-0.5-1-0.9-1h-6.6L30.7,39.5L30.7,39.5z"/>
<path class="st0" d="M28.5,34.7h8.8c1.6,0,3,1.2,3,2.9c0,0.1,0,0.2,0,0.3c0,2.3-1.3,3.8-3,3.8h-8.8V34.7L28.5,34.7z M40.9,63.3
	c6.5,0,12.1-3.9,12.1-10.7c0.1-2.9-1.3-5.7-3.7-7.4c-1.1-0.8-2.3-1.3-3.6-1.5c1.1-0.3,2.2-0.8,3-1.5c1.8-1.4,2.8-3.6,2.7-5.8
	c0-5.6-4.6-9.4-11.6-9.4H17.3v36.3H40.9z M28.5,47.8h8.3c2.6,0,4.8,0.8,4.8,3.7s-2.3,4.2-4.8,4.2h-8.3V47.8z"/>
<path class="st1" d="M27.8,34.7h8.8c1.6,0,3,1.2,3,2.9c0,0.1,0,0.2,0,0.3c0,2.3-1.3,3.8-3,3.8h-8.8V34.7L27.8,34.7z M40.2,63.3
	c6.5,0,12.1-3.9,12.1-10.7c0.1-2.9-1.3-5.7-3.7-7.4c-1.1-0.8-2.3-1.3-3.6-1.5c1.1-0.3,2.2-0.8,3-1.5c1.7-1.4,2.7-3.6,2.7-5.9
	c0-5.6-4.6-9.3-11.6-9.3H16.6v36.3H40.2z M27.8,47.8h8.3c2.6,0,4.8,0.8,4.8,3.7s-2.4,4.1-4.8,4.1h-8.3V47.8z"/>
<path class="st0" d="M6.8,73v8.9H5.7v-7.7H4.3V73H6.8z"/>
<path class="st0" d="M12.2,78.8c-0.4,0-0.8,0.3-1,0.7c-0.1,0.3-0.1,0.7-0.1,1v0.2H16v1.2h-6v-1c0-1.4,0.1-3,1.9-3.3l1.8-0.3
	c0.7,0,1.2-0.6,1.2-1.3c0-0.1,0-0.2,0-0.3c0-1.1-0.4-1.6-1.8-1.6c-1.6,0-1.9,0.4-1.9,1.8h-1.1c0-1.9,0.5-3.1,2.9-3.1
	c1.4,0,3,0.2,3,2.8c0.1,0.8-0.2,1.6-0.8,2.1c-0.3,0.3-0.7,0.5-1.2,0.6L12.2,78.8z"/>
<path class="st0" d="M16.9,79.8c1.6-0.3,3.1-0.9,4.5-1.8v-2.7h-4.5v-1.1h4.5v-1.9h1v1.9h3.2v1.2h-3.2v1.9c0.6-0.4,1-0.9,1.4-1.5
	l0.8,0.8c-0.6,0.8-1.4,1.6-2.3,2.2v3.3c0,0.4-0.3,0.8-0.7,0.9c0,0-0.1,0-0.1,0h-1.8l-0.2-1.2h1.5c0.3,0,0.3-0.1,0.3-0.3v-2.2
	c-1.3,0.7-2.7,1.3-4.1,1.6L16.9,79.8z"/>
<path class="st0" d="M26.4,82c1.5-0.6,3-1.3,4.4-2.1l-0.2-1.1c-1,0.5-2.5,1.2-2.5,1.2v-7.5h-1v7.9c-0.5,0.2-0.6,0.2-0.9,0.3L26.4,82
	z M34.2,72.7h-1v1.9c0,2.8-0.3,6.1-4.1,7.2l0.5,1.2c1.3-0.4,2.4-1.3,3.1-2.5c0.6,0.8,1,1.6,1.4,2.4l0.8-1c-0.5-0.8-1.1-1.7-1.7-2.4
	c0.6-1.5,0.9-3.2,0.8-4.8L34.2,72.7L34.2,72.7z M29.1,73.7c0.7,0.9,1.3,1.9,1.8,3l0.9-0.8c-0.5-1.1-1.1-2.1-1.9-3L29.1,73.7z"/>
<path class="st0" d="M40.2,72.4v3.4h3.5V77h-3.5v4.4h4.1v1.2h-8.8v-1.2h3.7v-9L40.2,72.4L40.2,72.4z"/>
<path class="st0" d="M51.8,72.3v2.1h-2.2v1.2h2.2v5.8c0,0.2,0,0.3-0.3,0.3h-1.4l0.2,1.2h1.4c0.5,0.1,1-0.1,1.1-0.6
	c0-0.1,0-0.3,0-0.4v-6.3h0.8v-1.2h-0.8v-2.1H51.8z M45.1,76.8c0.6,0.6,1.2,1.3,1.8,2c-0.5,1.1-1.2,2.1-2,2.9l0.7,1
	c0.9-0.8,1.6-1.8,2.1-2.9c0.4,0.6,0.7,1.2,1,1.8l0.8-0.8C49,80,48.5,79.3,48,78.6c0.4-1.1,0.6-2.2,0.8-3.4h0.5v-1.1h-1.6v-1.7h-1
	v1.7h-1.7v1.2h2.9c-0.1,0.8-0.2,1.7-0.5,2.5c-0.5-0.6-1-1.1-1.5-1.6L45.1,76.8z M49.2,77.1c0.5,1,0.9,2,1.2,3l1-0.6
	c-0.3-1-0.7-2-1.2-3L49.2,77.1z"/>
<path class="st0" d="M55.9,74.6c0.3-0.2,0.6-0.4,0.9-0.7h2.7c-0.2,0.3-0.4,0.5-0.6,0.7H55.9L55.9,74.6z M54.6,81.2
	c1.3-0.3,2.5-0.8,3.6-1.5c0,0.1,0.1,0.3,0.1,0.4c-1.3,0.8-2.7,1.4-4.1,1.6l0.3,1c1.4-0.3,2.8-0.9,4-1.7c0,0.7,0,0.8-0.6,0.8h-0.9
	l0.2,1.1h0.8c0.5,0,1.2,0,1.2-1.6c0-0.9-0.2-1.8-0.7-2.6c-0.1-0.2-0.3-0.3-0.4-0.5c0.4-0.2,0.8-0.5,1.1-0.8c0.5,3.4,1.8,4.5,3.1,5.2
	l0.6-1c-0.7-0.4-1.3-0.9-1.8-1.5c0.5-0.4,1-0.8,1.5-1.3L62,78.1c-0.4,0.4-0.8,0.9-1.2,1.2c-0.2-0.6-0.4-1.2-0.5-1.8h2.1v-2.8h-2.1
	c0.2-0.2,0.4-0.5,0.6-0.7V73h-3.2c0.1-0.2,0.2-0.2,0.3-0.4l-1-0.2c-0.7,1-1.6,1.7-2.8,2.1l0.4,1c0.1-0.1,0.3-0.1,0.4-0.2v2.2H58
	c-1.1,0.6-2.3,1-3.5,1.2l0.3,0.9c0.9-0.2,1.9-0.5,2.7-0.9c0.1,0.1,0.2,0.2,0.3,0.3c-1.1,0.7-2.2,1.1-3.5,1.2L54.6,81.2z M58.1,75.5
	v1h-2.4v-1H58.1L58.1,75.5z M61.5,75.5v1h-2.4v-1H61.5L61.5,75.5z"/>
</svg>
