<svg xmlns="http://www.w3.org/2000/svg" xmlns:xlink="http://www.w3.org/1999/xlink" width="166" height="22" viewBox="0 0 166 22">
    <defs>
        <path id="prefix__a" d="M0 0.015L164.896 0.015 164.896 20.618 0 20.618z"/>
    </defs>
    <g fill="none" fill-rule="evenodd" transform="translate(.5 .615)">
        <mask id="prefix__b" fill="#fff">
            <use xlink:href="#prefix__a"/>
        </mask>
        <path fill="#FEFEFE" d="M94.15 11.542c-.235-.708-.894-1.462-2.056-1.462-.825 0-1.644.418-2.007 1.462h4.063zm2.19.661c0 .783-.516.99-1.538.99h-4.748c.23 1.05 1.186 1.604 2.006 1.604.81 0 1.42-.292 1.92-.93l1.91.69c-.621 1.258-2.059 2.266-3.81 2.266-2.405 0-4.231-2.152-4.231-4.4 0-2.177 1.785-4.374 4.209-4.374 2.792 0 4.248 2.44 4.283 4.154zm5.306-4.152c-.876 0-1.66.364-2.137.958h-.025v-.703h-2.34v8.26h2.34v-4.022c0-1.605.85-2.297 1.816-2.297.67 0 1.69.436 1.69 2.06v4.255h2.341v-4.43c0-2.778-1.87-4.081-3.685-4.081zM86.077 6.028h-2.335v2.277H82.18v1.947h1.563v6.313h2.335v-6.313h1.582V8.305h-1.582V6.028zm36.033 6.412c0-1.224-.95-2.22-2.12-2.22-1.167 0-2.118.996-2.118 2.22 0 1.224.95 2.22 2.119 2.22 1.169 0 2.12-.996 2.12-2.22zm2.178-.003c0 2.418-1.923 4.385-4.296 4.385-2.375 0-4.297-1.967-4.297-4.385 0-2.419 1.922-4.388 4.297-4.388 2.373 0 4.296 1.97 4.296 4.388zm1.455 3.78l-.18-.633h-.328v.984h.225l-.008-.737.208.737h.162l.207-.737-.008.737h.226v-.984h-.33l-.174.634zm-13.165-3.782c0-1.249-.905-2.236-2.13-2.236-1.223 0-2.158 1.004-2.158 2.236 0 1.232.935 2.235 2.158 2.235 1.225 0 2.13-.987 2.13-2.235zm-.013-7.496h2.342v11.629h-2.342v-.61h-.04c-.185.282-1.05.864-2.156.864-2.308 0-4.251-1.976-4.251-4.387 0-2.412 1.943-4.386 4.251-4.386 1.107 0 1.97.58 2.156.862h.04V4.939zm-68.879-.08c-.596 0-1.258.241-1.783 1.469-.36.843-2.824 6.57-2.824 6.57h-.047s-2.464-5.73-2.825-6.573C35.682 5.1 34.985 4.86 34.425 4.86c-.814 0-1.57.552-1.57 1.87v9.835h2.511v-6.482h.05l2.339 5.456c.405.945.857 1.102 1.3 1.102.444 0 .896-.157 1.301-1.102l2.34-5.456h.05v6.482h2.51V6.74c0-1.318-.69-1.882-1.57-1.882zm80.803 10.945h.189v.764h.245v-.764h.188v-.22h-.622v.22zM50.752 13.42l-1.96-5.126h-2.616l3.497 8.103c-.224 1.071-.894 1.489-1.83 1.489H47.5v2.062h.445c1.788 0 2.714-.329 3.271-1.726.137-.342 3.934-9.928 3.934-9.928h-2.635l-1.763 5.126zM21.301 5.688C19.398 2.123 15.984.015 12.046.015c-4.634 0-9.428 3.165-9.428 8.46 0 3.718 3.107 5.239 3.24 5.302.495.235 1.084.034 1.342-.46L8.977 9.92l1.284 2.582c.176.354.53.577.918.577s.743-.223.919-.577l1.277-2.567 1.737 3.376c.266.516.89.714 1.393.442.504-.273.697-.913.43-1.43l-2.664-5.178c-.18-.35-.542-.565-.92-.564-.384.003-.736.225-.91.577l-1.262 2.536-1.26-2.536c-.175-.35-.525-.573-.909-.577-.383-.003-.738.211-.92.558l-2.166 4.143c-.575-.529-1.244-1.438-1.244-2.807 0-3.971 3.745-6.345 7.366-6.345 3.338 0 6.214 1.894 7.692 5.066.182.391.579.627 1 .6.099-.007.135-.005.154-.004.034.002.06.002.081.002 2.565 0 4.352 2.37 4.352 4.498 0 2.579-1.973 4.599-4.49 4.599-.996 0-1.97-.413-2.456-.796-.373-.295-.895-.293-1.265.006-.898.722-3.371 2.402-6.933 2.402-4.151 0-7.21-2.37-8.362-3.771-.367-.447-1.018-.503-1.453-.127-.435.377-.49 1.044-.123 1.49.38.463 3.895 4.523 9.938 4.523 3.525 0 6.123-1.352 7.611-2.405.894.493 2.015.793 3.042.793 3.674 0 6.553-2.95 6.553-6.714 0-3.101-2.431-6.416-6.086-6.604zm48.413 10.88h2.34V8.303h-2.34v8.265zm8.364-8.517c-.876 0-1.66.364-2.137.958h-.025v-.703h-2.34v8.26h2.34v-4.022c0-1.605.85-2.297 1.816-2.297.67 0 1.69.436 1.69 2.06v4.255h2.342v-4.43c0-2.778-1.871-4.081-3.686-4.081zm-7.194-3.633c-.755 0-1.367.628-1.367 1.402 0 .775.612 1.403 1.367 1.403s1.367-.628 1.367-1.403c0-.774-.612-1.402-1.367-1.402zm-5.326 7.71l-4.746-6.403c-.49-.66-.957-.863-1.335-.863-.895 0-1.365.553-1.365 1.346v10.356h2.512v-7.19l4.745 6.405c.49.66.957.864 1.335.864.896 0 1.365-.554 1.365-1.347V4.94h-2.512v7.189zm88.489-3.075h-.026v-.748h-2.338v8.26h2.338v-3.723c0-1.564.82-2.456 2.083-2.456h.08V8.05c-.819 0-1.709.339-2.137 1.003zM148.8 12.44c0-1.224-.95-2.219-2.119-2.219-1.168 0-2.119.995-2.119 2.22 0 1.223.95 2.218 2.12 2.218 1.168 0 2.118-.995 2.118-2.219zm2.178-.003c0 2.418-1.922 4.385-4.296 4.385-2.374 0-4.296-1.967-4.296-4.385 0-2.419 1.922-4.388 4.296-4.388 2.374 0 4.296 1.97 4.296 4.388zm-10.364-6.409h-2.334v2.277h-1.564v1.948h1.564v6.312h2.334v-6.312h1.582V8.305h-1.582V6.028zm22.09 5.515c-.236-.708-.896-1.464-2.058-1.464-.823 0-1.628.419-1.992 1.464h4.05zm.652 1.65h-4.76c.29 1.064 1.215 1.602 2.016 1.602.812 0 1.422-.289 1.92-.928l1.913.69c-.622 1.256-2.06 2.266-3.813 2.266-2.403 0-4.23-2.152-4.23-4.401 0-2.176 1.786-4.373 4.208-4.373 2.794 0 4.25 2.439 4.285 4.154 0 .783-.517.99-1.54.99zm-26.83.097c0 1.679-1.45 3.62-3.88 3.62-1.921 0-3.375-1.209-4.113-2.161l2.144-1.53c.583.605 1.317 1.059 2.03 1.059.626 0 1.22-.405 1.22-.988 0-.823-1.132-1.14-2.364-1.618-2.09-.81-2.736-2.055-2.736-3.523 0-1.765 1.506-3.554 3.822-3.554 1.504 0 2.808.918 3.636 1.962l-1.978 1.42c-.623-.592-1.16-.805-1.752-.805-.856 0-1.206.529-1.206.957 0 .894 1.196 1.162 2.37 1.615 2.374.915 2.808 2.272 2.808 3.546z" mask="url(#prefix__b)"/>
    </g>
</svg>
