<svg xmlns="http://www.w3.org/2000/svg" xmlns:xlink="http://www.w3.org/1999/xlink" width="55" height="10" viewBox="0 0 55 10">
    <defs>
        <path id="lnxb65zd9a" d="M0 0L54.762 0 54.762 10 0 10z"/>
    </defs>
    <g fill="none" fill-rule="evenodd">
        <g>
            <g>
                <g>
                    <g transform="translate(-141.000000, -942.000000) translate(16.000000, 938.000000) translate(121.000000, 0.000000) translate(4.000000, 4.000000)">
                        <mask id="ajj5rwig3b" fill="#fff">
                            <use xlink:href="#lnxb65zd9a"/>
                        </mask>
                        <path fill="#FFF" d="M31.713 1.667h-1.475V8.81h5.238V7.416h-3.744v-5.75h-.019zm-5.147 4.598L23.08 1.667h-1.413V8.79H23.1V4.054l3.756 4.756h1.24V1.667h-1.492v4.598h-.038zm18.828 0L41.89 1.667h-1.414V8.79h1.433V4.054l3.757 4.756h1.239V1.667h-1.51v4.598zm9.368-3.205V1.667h-5.714V8.81h5.714V7.416h-4.229V5.807h4.02V4.492h-4.02V3.06h4.229zM36.905 8.81h1.428V1.667h-1.428V8.81zm-20.873-.954c-.97.032-1.862-.527-2.256-1.414-.393-.886-.21-1.923.465-2.62.674-.698 1.704-.917 2.603-.553.9.363 1.488 1.236 1.489 2.206.01.621-.226 1.22-.657 1.667-.432.447-1.024.703-1.644.714zm.001-6.19c-2.035.022-3.67 1.687-3.652 3.723.017 2.036 1.68 3.672 3.716 3.658 2.035-.013 3.675-1.673 3.665-3.709-.021-2.041-1.687-3.682-3.729-3.671zM3.81 9.287H2.41c-.937 0-1.697-.783-1.697-1.748V2.7c0-.965.76-1.748 1.697-1.748H3.81v8.334zM4.685 0h-2.16C1.13 0 0 1.145 0 2.558v4.884C0 8.855 1.13 10 2.524 10h2.161c.043 0 .077-.035.077-.078V.077C4.762.035 4.728 0 4.685 0zm3.172 6.667c-.526 0-.952-.48-.952-1.072 0-.591.426-1.071.952-1.071s.953.48.953 1.071c0 .592-.427 1.072-.953 1.072zM7.37 0H5.774c-.033 0-.06.026-.06.058v9.864c0 .043.036.078.08.078H7.37C8.822 10 10 8.855 10 7.442V2.558C10 1.145 8.822 0 7.37 0zm-5.94 2.857c0 .526.426.953.952.953s.952-.427.952-.953-.426-.952-.952-.952-.952.426-.952.952z" mask="url(#ajj5rwig3b)"/>
                    </g>
                </g>
            </g>
        </g>
    </g>
</svg>
